<svg width="150" height="32" viewBox="0 0 150 32" fill="none" xmlns="http://www.w3.org/2000/svg">
<g clip-path="url(#clip0_114_2)">
<rect x="0.5" y="0.5" width="149" height="31" rx="15.5" fill="#1C1C1C" stroke="#383838"/>
<path d="M43.33 20.352C43.294 20.532 43.186 20.688 43.006 20.82C42.838 20.94 42.598 21 42.286 21C42.022 21 41.812 20.928 41.656 20.784C41.512 20.64 41.434 20.49 41.422 20.334C41.494 19.83 41.53 19.074 41.53 18.066C41.53 17.466 41.494 16.542 41.422 15.294C41.338 14.118 41.296 13.074 41.296 12.162C41.296 11.67 41.32 11.166 41.368 10.65C41.368 10.482 41.464 10.302 41.656 10.11C41.86 9.918 42.136 9.798 42.484 9.75C43.624 9.63 45.022 9.57 46.678 9.57H47.254C47.686 9.57 48.106 9.648 48.514 9.804C48.934 9.96 49.144 10.23 49.144 10.614C49.144 10.866 49.084 11.064 48.964 11.208C48.844 11.352 48.622 11.424 48.298 11.424C48.142 11.424 47.962 11.412 47.758 11.388C47.554 11.364 47.41 11.346 47.326 11.334C46.87 11.262 46.516 11.226 46.264 11.226C44.872 11.226 43.822 11.322 43.114 11.514C43.114 11.91 43.126 12.552 43.15 13.44L43.168 14.592C43.792 14.592 44.35 14.568 44.842 14.52C45.334 14.46 45.616 14.424 45.688 14.412C46.312 14.34 46.726 14.304 46.93 14.304C47.218 14.304 47.458 14.37 47.65 14.502C47.854 14.622 47.956 14.814 47.956 15.078C47.956 15.678 47.536 15.978 46.696 15.978C46.492 15.978 46.312 15.984 46.156 15.996C46 16.008 45.868 16.02 45.76 16.032C45.328 16.08 44.986 16.104 44.734 16.104C44.182 16.104 43.714 16.122 43.33 16.158C43.33 16.602 43.348 17.07 43.384 17.562C43.384 17.718 43.39 17.958 43.402 18.282C43.426 18.606 43.438 18.9 43.438 19.164C43.438 19.392 43.432 19.602 43.42 19.794C43.408 19.986 43.378 20.172 43.33 20.352ZM52.6883 20.28C52.6883 20.484 52.6103 20.664 52.4543 20.82C52.2983 20.976 52.1063 21.054 51.8783 21.054C51.5183 21.054 51.2543 20.988 51.0863 20.856C50.9183 20.712 50.8343 20.454 50.8343 20.082C50.8343 19.638 50.8223 19.056 50.7983 18.336C50.7743 17.736 50.7623 17.232 50.7623 16.824C50.7623 16.632 50.7743 16.38 50.7983 16.068C50.8223 15.78 50.8343 15.564 50.8343 15.42C50.7983 15.192 50.7083 15.006 50.5643 14.862C50.4203 14.706 50.2343 14.628 50.0063 14.628C49.8983 14.628 49.8083 14.58 49.7363 14.484C49.6643 14.376 49.6283 14.268 49.6283 14.16C49.6283 13.884 49.7363 13.674 49.9523 13.53C50.1803 13.386 50.4503 13.314 50.7623 13.314C51.4103 13.314 51.8603 13.698 52.1123 14.466C52.4243 14.106 52.7783 13.818 53.1743 13.602C53.5823 13.374 53.9723 13.26 54.3443 13.26C54.7883 13.26 55.1903 13.38 55.5503 13.62C55.9223 13.86 56.1083 14.184 56.1083 14.592C56.1083 14.82 56.0063 15.054 55.8023 15.294C55.6103 15.534 55.4123 15.654 55.2083 15.654C55.1003 15.654 55.0043 15.63 54.9203 15.582C54.8483 15.522 54.7583 15.438 54.6503 15.33C54.5303 15.21 54.4283 15.126 54.3443 15.078C54.2603 15.018 54.1643 14.988 54.0563 14.988C53.8643 14.988 53.6843 15.018 53.5163 15.078C53.3483 15.138 53.2343 15.21 53.1743 15.294C52.9823 15.594 52.8383 15.864 52.7423 16.104C52.6583 16.344 52.6163 16.602 52.6163 16.878C52.6163 17.082 52.6103 17.244 52.5983 17.364L52.5803 18.39C52.5803 18.546 52.5863 18.72 52.5983 18.912C52.6103 19.104 52.6223 19.248 52.6343 19.344C52.6703 19.668 52.6883 19.98 52.6883 20.28ZM57.0346 17.184C57.0346 16.728 57.1186 16.272 57.2866 15.816C57.4546 15.348 57.6766 14.922 57.9526 14.538C58.2286 14.154 58.6666 13.842 59.2666 13.602C59.8666 13.35 60.4006 13.224 60.8686 13.224C61.3486 13.224 61.8346 13.29 62.3266 13.422C62.8306 13.554 63.1786 13.758 63.3706 14.034C63.8146 14.658 64.0366 15.27 64.0366 15.87C64.0366 16.194 63.9646 16.47 63.8206 16.698C63.6886 16.926 63.4966 17.172 63.2446 17.436C63.0406 17.652 62.7166 17.796 62.2726 17.868C61.8406 17.94 61.4086 17.976 60.9766 17.976C60.7006 17.976 60.3646 17.952 59.9686 17.904C59.5726 17.844 59.1886 17.772 58.8166 17.688C58.8406 17.928 58.9006 18.162 58.9966 18.39C59.0926 18.618 59.2066 18.792 59.3386 18.912C59.5786 19.14 59.8246 19.284 60.0766 19.344C60.3406 19.404 60.6766 19.434 61.0846 19.434C61.5166 19.434 61.9186 19.362 62.2906 19.218C62.5906 19.11 62.8366 19.056 63.0286 19.056C63.2566 19.056 63.4306 19.128 63.5506 19.272C63.6706 19.404 63.7306 19.578 63.7306 19.794C63.7306 20.094 63.5566 20.34 63.2086 20.532C62.8606 20.724 62.4586 20.868 62.0026 20.964C61.5586 21.048 61.1986 21.09 60.9226 21.09C60.3586 21.09 59.8126 20.988 59.2846 20.784C58.7566 20.58 58.3186 20.292 57.9706 19.92C57.6826 19.584 57.4546 19.182 57.2866 18.714C57.1186 18.234 57.0346 17.724 57.0346 17.184ZM60.9586 14.754C60.6946 14.754 60.4306 14.808 60.1666 14.916C59.9026 15.012 59.6866 15.15 59.5186 15.33C59.3026 15.558 59.1526 15.744 59.0686 15.888C58.9966 16.02 58.9486 16.206 58.9246 16.446C59.2246 16.542 59.8486 16.59 60.7966 16.59C61.3126 16.59 61.7086 16.512 61.9846 16.356C62.2726 16.2 62.4166 15.996 62.4166 15.744C62.4166 15.492 62.2606 15.264 61.9486 15.06C61.6366 14.856 61.3066 14.754 60.9586 14.754ZM65.5767 16.878C65.5767 16.146 65.7387 15.54 66.0627 15.06C66.3867 14.568 66.8367 14.106 67.4127 13.674C67.5807 13.554 67.8627 13.452 68.2587 13.368C68.6547 13.272 69.0027 13.224 69.3027 13.224C69.6627 13.224 70.0407 13.302 70.4367 13.458C70.8447 13.602 71.1747 13.77 71.4267 13.962C71.8707 14.286 72.1767 14.664 72.3447 15.096C72.5127 15.516 72.5967 16.02 72.5967 16.608C72.5967 16.86 72.4527 17.106 72.1647 17.346C71.8887 17.574 71.5887 17.688 71.2647 17.688L70.5807 17.67C70.2327 17.67 69.7347 17.682 69.0867 17.706L68.7087 17.724C68.4447 17.748 68.2467 17.76 68.1147 17.76C67.9227 17.76 67.6587 17.736 67.3227 17.688C67.3707 18.252 67.5807 18.696 67.9527 19.02C68.3247 19.332 68.7267 19.488 69.1587 19.488C69.9147 19.488 70.4427 19.338 70.7427 19.038C70.9947 18.858 71.1627 18.744 71.2467 18.696C71.3307 18.648 71.4627 18.624 71.6427 18.624C71.8347 18.624 72.0027 18.714 72.1467 18.894C72.2907 19.074 72.3627 19.254 72.3627 19.434C72.3627 19.638 72.2367 19.848 71.9847 20.064C71.7447 20.268 71.4147 20.484 70.9947 20.712C70.7667 20.808 70.4547 20.892 70.0587 20.964C69.6627 21.036 69.3327 21.072 69.0687 21.072C68.6487 21.072 68.1807 20.952 67.6647 20.712C67.1487 20.46 66.7647 20.184 66.5127 19.884C66.2607 19.584 66.0387 19.158 65.8467 18.606C65.6667 18.054 65.5767 17.478 65.5767 16.878ZM69.1587 16.392C70.0107 16.392 70.6347 16.362 71.0307 16.302C71.0067 15.954 70.8987 15.672 70.7067 15.456C70.5147 15.228 70.2507 15.036 69.9147 14.88C69.8067 14.832 69.7107 14.796 69.6267 14.772C69.5427 14.748 69.4467 14.736 69.3387 14.736C68.7867 14.736 68.3187 14.886 67.9347 15.186C67.5627 15.486 67.3407 15.87 67.2687 16.338C67.8687 16.374 68.4987 16.392 69.1587 16.392ZM77.5867 10.506C77.5867 9.99 77.9647 9.732 78.7207 9.732C79.0447 9.732 79.6627 9.744 80.5747 9.768C81.5827 9.816 82.3447 9.84 82.8607 9.84C83.2807 9.84 83.7907 9.816 84.3907 9.768C84.7987 9.744 85.0567 9.732 85.1647 9.732C85.8247 9.756 86.3827 9.876 86.8387 10.092C86.9707 10.152 87.0787 10.224 87.1627 10.308C87.2467 10.392 87.2887 10.53 87.2887 10.722C87.2887 10.986 87.2047 11.214 87.0367 11.406C86.8687 11.586 86.6647 11.676 86.4247 11.676C86.1607 11.676 85.7767 11.64 85.2727 11.568C84.8287 11.484 84.4387 11.442 84.1027 11.442C83.7787 11.442 83.5327 11.448 83.3647 11.46C83.3287 11.856 83.3107 12.804 83.3107 14.304C83.3107 16.092 83.3647 17.904 83.4727 19.74L83.5087 20.262C83.5087 20.754 83.2267 21 82.6627 21C82.2187 21 81.9187 20.898 81.7627 20.694C81.6067 20.478 81.5287 20.154 81.5287 19.722C81.5287 18.87 81.5047 17.808 81.4567 16.536C81.4087 15.48 81.3847 14.73 81.3847 14.286C81.3847 13.986 81.4207 13.068 81.4927 11.532L79.3867 11.55C78.7147 11.55 78.2467 11.49 77.9827 11.37C77.7187 11.238 77.5867 10.95 77.5867 10.506ZM88.5045 14.682C88.1925 14.466 88.0365 14.238 88.0365 13.998C88.0365 13.83 88.1085 13.674 88.2525 13.53C88.3965 13.386 88.6125 13.314 88.9005 13.314C89.2365 13.314 89.5365 13.404 89.8005 13.584C90.0765 13.752 90.2685 13.998 90.3765 14.322C90.6525 13.998 90.9645 13.74 91.3125 13.548C91.6725 13.356 92.0385 13.26 92.4105 13.26C92.8545 13.26 93.2565 13.38 93.6165 13.62C93.9765 13.86 94.1565 14.184 94.1565 14.592C94.1565 14.82 94.0545 15.054 93.8505 15.294C93.6585 15.534 93.4605 15.654 93.2565 15.654C93.1485 15.654 93.0525 15.63 92.9685 15.582C92.8965 15.522 92.8065 15.438 92.6985 15.33C92.5785 15.21 92.4765 15.126 92.3925 15.078C92.3085 15.018 92.2125 14.988 92.1045 14.988C91.9125 14.988 91.7325 15.018 91.5645 15.078C91.3965 15.138 91.2825 15.21 91.2225 15.294C91.0305 15.594 90.8865 15.864 90.7905 16.104C90.7065 16.344 90.6645 16.602 90.6645 16.878C90.6645 17.082 90.6585 17.244 90.6465 17.364L90.6285 18.39C90.6285 18.546 90.6345 18.72 90.6465 18.912C90.6585 19.104 90.6705 19.248 90.6825 19.344C90.7185 19.668 90.7365 19.98 90.7365 20.28C90.7365 20.484 90.6585 20.664 90.5025 20.82C90.3465 20.976 90.1545 21.054 89.9265 21.054C89.5665 21.054 89.3025 20.988 89.1345 20.856C88.9665 20.712 88.8825 20.454 88.8825 20.082L88.8645 18.93C88.8525 18.702 88.8465 18.378 88.8465 17.958L88.8645 16.77C88.8885 16.194 88.9005 15.726 88.9005 15.366C88.9005 15.234 88.8705 15.114 88.8105 15.006C88.7625 14.898 88.6605 14.79 88.5045 14.682ZM96.0997 9.444C96.5197 9.48 96.8797 9.594 97.1797 9.786C97.4917 9.966 97.6477 10.242 97.6477 10.614C97.6477 10.89 97.5217 11.112 97.2697 11.28C97.0177 11.436 96.7057 11.514 96.3337 11.514C95.9857 11.514 95.7457 11.424 95.6137 11.244C95.4817 11.064 95.4157 10.878 95.4157 10.686C95.4157 10.338 95.4577 10.044 95.5417 9.804C95.6257 9.552 95.8117 9.432 96.0997 9.444ZM95.7397 16.878V16.356C95.7397 15.756 95.7097 15.21 95.6497 14.718C95.6017 14.214 95.5717 13.902 95.5597 13.782C95.5717 13.65 95.6617 13.524 95.8297 13.404C95.9977 13.284 96.1477 13.224 96.2797 13.224C96.5077 13.224 96.7357 13.272 96.9637 13.368C97.2037 13.452 97.3537 13.56 97.4137 13.692C97.4737 14.136 97.5037 14.478 97.5037 14.718C97.5037 15.246 97.5277 16.11 97.5757 17.31L97.5937 18.012L97.6297 18.696C97.6417 18.888 97.6537 19.116 97.6657 19.38C97.6777 19.644 97.6837 19.944 97.6837 20.28C97.6837 20.508 97.5697 20.7 97.3417 20.856C97.1257 21.012 96.8977 21.09 96.6577 21.09C96.3097 21.09 96.0637 21.012 95.9197 20.856C95.7877 20.7 95.7217 20.454 95.7217 20.118L95.7397 16.878ZM107.978 20.136C107.978 20.4 107.834 20.622 107.546 20.802C107.27 20.982 107.012 21.072 106.772 21.072C106.316 21.072 105.95 21.018 105.674 20.91C105.41 20.79 105.164 20.574 104.936 20.262C104.624 20.538 104.198 20.748 103.658 20.892C103.118 21.024 102.62 21.09 102.164 21.09C101.42 21.09 100.808 20.892 100.328 20.496C99.848 20.088 99.608 19.494 99.608 18.714C99.608 18.378 99.698 18.072 99.878 17.796C100.058 17.508 100.304 17.256 100.616 17.04C100.964 16.812 101.36 16.638 101.804 16.518C102.248 16.386 102.71 16.32 103.19 16.32C103.442 16.32 103.742 16.368 104.09 16.464C104.438 16.56 104.708 16.662 104.9 16.77V16.482C104.9 15.834 104.744 15.39 104.432 15.15C104.12 14.898 103.616 14.772 102.92 14.772C102.716 14.772 102.512 14.814 102.308 14.898C102.116 14.982 101.894 15.096 101.642 15.24C101.306 15.42 100.988 15.51 100.688 15.51C100.58 15.51 100.478 15.438 100.382 15.294C100.286 15.138 100.238 15 100.238 14.88C100.238 14.532 100.4 14.232 100.724 13.98C101.06 13.728 101.456 13.542 101.912 13.422C102.368 13.29 102.776 13.224 103.136 13.224C103.496 13.224 103.91 13.296 104.378 13.44C104.846 13.572 105.23 13.758 105.53 13.998C105.89 14.31 106.166 14.676 106.358 15.096C106.562 15.504 106.664 15.954 106.664 16.446C106.664 16.602 106.652 16.836 106.628 17.148C106.604 17.484 106.592 17.772 106.592 18.012C106.592 18.12 106.58 18.282 106.556 18.498C106.532 18.762 106.52 18.972 106.52 19.128C106.52 19.272 106.574 19.398 106.682 19.506C106.79 19.602 106.916 19.65 107.06 19.65L107.564 19.632C107.696 19.632 107.798 19.68 107.87 19.776C107.942 19.872 107.978 19.992 107.978 20.136ZM102.182 19.668C102.698 19.668 103.13 19.614 103.478 19.506C103.826 19.398 104.246 19.2 104.738 18.912C104.786 18.708 104.816 18.438 104.828 18.102C104.168 17.79 103.622 17.634 103.19 17.634C102.698 17.634 102.26 17.724 101.876 17.904C101.492 18.084 101.3 18.402 101.3 18.858C101.3 19.086 101.396 19.278 101.588 19.434C101.78 19.59 101.978 19.668 102.182 19.668ZM111.191 18.21C111.191 18.666 111.257 19.02 111.389 19.272C111.533 19.512 111.713 19.632 111.929 19.632C112.049 19.632 112.163 19.626 112.271 19.614C112.379 19.59 112.487 19.578 112.595 19.578C112.715 19.578 112.817 19.638 112.901 19.758C112.997 19.878 113.045 20.01 113.045 20.154C113.045 20.442 112.907 20.67 112.631 20.838C112.367 20.994 112.007 21.072 111.551 21.072C111.227 21.072 110.897 20.976 110.561 20.784C110.237 20.58 109.967 20.268 109.751 19.848C109.535 19.416 109.427 18.882 109.427 18.246C109.427 16.878 109.451 15.72 109.499 14.772C109.559 13.644 109.589 12.222 109.589 10.506C109.589 9.966 109.619 9.588 109.679 9.372C109.751 9.204 109.865 9.078 110.021 8.994C110.189 8.898 110.363 8.85 110.543 8.85C110.723 8.85 110.879 8.88 111.011 8.94C111.155 9 111.251 9.096 111.299 9.228C111.347 9.372 111.377 9.516 111.389 9.66C111.413 9.792 111.425 9.984 111.425 10.236C111.425 10.728 111.407 11.202 111.371 11.658C111.347 12.21 111.335 12.612 111.335 12.864C111.239 14.976 111.191 16.758 111.191 18.21Z" fill="white"/>
<rect x="136.973" y="-11" width="14.943" height="33" rx="2" transform="rotate(33 136.973 -11)" fill="#2E8C72"/>
<rect x="18.3588" y="4" width="16" height="37.3804" rx="2" transform="rotate(33 18.3588 4)" fill="#5DFF98"/>
<rect x="21.4222" y="17.6666" width="14.4327" height="33" rx="2" transform="rotate(33 21.4222 17.6666)" fill="#2E8C72"/>
<rect x="132.277" y="-23.6951" width="16" height="33" rx="2" transform="rotate(33 132.277 -23.6951)" fill="#5DFF98"/>
</g>
<defs>
<clipPath id="clip0_114_2">
<rect width="150" height="32" rx="16" fill="white"/>
</clipPath>
</defs>
</svg>
