<svg width="512" height="512" viewBox="0 0 512 512" fill="none" xmlns="http://www.w3.org/2000/svg">
<g filter="url(#filter0_n_108_2)">
<path d="M424.266 84.7547C420.213 82.0576 415.541 80.3621 410.658 79.816C405.774 79.27 400.826 79.89 396.247 81.622C369.721 91.6248 316.16 108.406 256 108.406C195.84 108.406 142.26 91.6248 115.697 81.622C111.114 79.898 106.166 79.2824 101.282 79.8286C96.3979 80.3748 91.7249 82.0663 87.6675 84.7566C83.6101 87.4469 80.2905 91.0549 77.9961 95.2683C75.7017 99.4817 74.5017 104.174 74.5 108.938V211.11C74.5 276.77 92.7445 338.711 125.887 385.483C160.221 433.958 206.428 460.596 256 460.596C305.572 460.596 351.779 433.903 386.113 385.483C419.255 338.748 437.5 276.807 437.5 211.147V108.938C437.491 104.167 436.281 99.4715 433.975 95.2573C431.668 91.0431 428.336 87.4379 424.266 84.7547ZM161.469 265.265C158.794 268.18 155.033 269.946 151.014 270.175C146.995 270.403 143.047 269.075 140.039 266.483C137.03 263.891 135.207 260.247 134.972 256.352C134.736 252.458 136.106 248.632 138.781 245.717C149.652 234.029 169.372 226.188 187.938 226.188C206.503 226.188 226.223 234.029 237.094 245.717C239.769 248.632 241.139 252.458 240.903 256.352C240.668 260.247 238.845 263.891 235.836 266.483C234.347 267.767 232.611 268.753 230.728 269.387C228.844 270.02 226.851 270.288 224.861 270.175C220.842 269.946 217.081 268.18 214.406 265.265C209.339 259.769 197.674 255.5 187.938 255.5C178.201 255.5 166.46 259.787 161.469 265.265ZM332.551 352.946C323.163 363.74 311.455 372.416 298.245 378.368C285.036 384.32 270.644 387.404 256.076 387.404C241.508 387.404 227.116 384.32 213.906 378.368C200.696 372.416 188.988 363.74 179.6 352.946C178.167 351.508 177.053 349.802 176.326 347.932C175.599 346.062 175.274 344.068 175.371 342.072C175.469 340.076 175.987 338.12 176.893 336.325C177.799 334.53 179.074 332.933 180.64 331.633C182.206 330.333 184.03 329.357 186 328.766C187.97 328.174 190.044 327.979 192.094 328.192C194.145 328.405 196.128 329.023 197.924 330.006C199.719 330.99 201.287 332.318 202.533 333.911C209.079 341.484 217.259 347.574 226.497 351.753C235.735 355.932 245.805 358.098 256 358.098C266.195 358.098 276.265 355.932 285.503 351.753C294.741 347.574 302.921 341.484 309.467 333.911C312.072 330.954 315.782 329.122 319.782 328.816C323.781 328.51 327.742 329.756 330.793 332.28C333.844 334.805 335.736 338.4 336.051 342.275C336.367 346.151 335.081 349.989 332.476 352.946H332.551ZM371.971 266.492C370.49 267.776 368.763 268.765 366.888 269.402C365.013 270.039 363.026 270.312 361.042 270.205C359.058 270.098 357.115 269.613 355.325 268.778C353.534 267.942 351.931 266.774 350.607 265.338C345.54 259.842 333.875 255.573 324.138 255.573C314.401 255.573 302.661 259.86 297.669 265.338C296.34 266.786 294.729 267.967 292.929 268.812C291.128 269.657 289.174 270.15 287.177 270.263C285.18 270.376 283.179 270.107 281.29 269.471C279.4 268.835 277.658 267.845 276.164 266.556C274.669 265.268 273.451 263.707 272.579 261.963C271.707 260.218 271.198 258.324 271.081 256.389C270.964 254.454 271.242 252.515 271.898 250.684C272.555 248.853 273.577 247.165 274.906 245.717C285.702 234.029 305.421 226.188 324.062 226.188C342.704 226.188 362.348 234.029 373.219 245.717C374.552 247.157 375.578 248.838 376.237 250.665C376.897 252.491 377.176 254.425 377.06 256.356C376.944 258.288 376.435 260.178 375.561 261.917C374.688 263.657 373.468 265.212 371.971 266.492Z" fill="url(#paint0_linear_108_2)"/>
</g>
<defs>
<filter id="filter0_n_108_2" x="74.5" y="79.6235" width="363" height="380.972" filterUnits="userSpaceOnUse" color-interpolation-filters="sRGB">
<feFlood flood-opacity="0" result="BackgroundImageFix"/>
<feBlend mode="normal" in="SourceGraphic" in2="BackgroundImageFix" result="shape"/>
<feTurbulence type="fractalNoise" baseFrequency="1.25 1.25" stitchTiles="stitch" numOctaves="3" result="noise" seed="5823" />
<feColorMatrix in="noise" type="luminanceToAlpha" result="alphaNoise" />
<feComponentTransfer in="alphaNoise" result="coloredNoise1">
<feFuncA type="discrete" tableValues="0 0 0 0 0 0 0 0 0 0 0 0 0 0 0 0 0 1 1 1 1 1 1 1 1 1 1 1 1 1 1 1 1 1 0 0 0 0 0 0 0 0 0 0 0 0 0 0 0 0 0 0 0 0 0 0 0 0 0 0 0 0 0 0 0 0 0 0 0 0 0 0 0 0 0 0 0 0 0 0 0 0 0 0 0 0 0 0 0 0 0 0 0 0 0 0 0 0 0 0 "/>
</feComponentTransfer>
<feComposite operator="in" in2="shape" in="coloredNoise1" result="noise1Clipped" />
<feComponentTransfer in="alphaNoise" result="coloredNoise2">
<feFuncA type="discrete" tableValues="0 0 0 0 0 0 0 0 0 0 0 0 0 0 0 0 0 0 0 0 0 0 0 0 0 0 0 0 0 0 0 0 0 0 0 0 0 0 0 0 0 0 0 0 0 0 0 0 0 0 0 0 0 0 0 0 0 0 0 0 0 0 0 0 0 0 1 1 1 1 1 1 1 1 1 1 1 1 1 1 1 1 1 0 0 0 0 0 0 0 0 0 0 0 0 0 0 0 0 0 "/>
</feComponentTransfer>
<feComposite operator="in" in2="shape" in="coloredNoise2" result="noise2Clipped" />
<feFlood flood-color="#000000" result="color1Flood" />
<feComposite operator="in" in2="noise1Clipped" in="color1Flood" result="color1" />
<feFlood flood-color="rgba(255, 255, 255, 0.25)" result="color2Flood" />
<feComposite operator="in" in2="noise2Clipped" in="color2Flood" result="color2" />
<feMerge result="effect1_noise_108_2">
<feMergeNode in="shape" />
<feMergeNode in="color1" />
<feMergeNode in="color2" />
</feMerge>
</filter>
<linearGradient id="paint0_linear_108_2" x1="438" y1="407" x2="59" y2="75" gradientUnits="userSpaceOnUse">
<stop stop-color="#006E30"/>
<stop offset="1" stop-color="#7AFD7D"/>
</linearGradient>
</defs>
</svg>
