<svg width="512" height="512" viewBox="0 0 512 512" fill="none" xmlns="http://www.w3.org/2000/svg">
<rect width="512" height="512" fill="url(#paint0_linear_3121_2)"/>
<rect x="56" y="56" width="400" height="400" fill="black"/>
<path d="M89.45 141.48C89.45 136.16 90.43 130.84 92.39 125.52C94.35 120.06 96.94 115.09 100.16 110.61C103.38 106.13 108.49 102.49 115.49 99.69C122.49 96.75 128.72 95.28 134.18 95.28C139.78 95.28 145.45 96.05 151.19 97.59C157.07 99.13 161.13 101.51 163.37 104.73C168.55 112.01 171.14 119.15 171.14 126.15C171.14 129.93 170.3 133.15 168.62 135.81C167.08 138.47 164.84 141.34 161.9 144.42C159.52 146.94 155.74 148.62 150.56 149.46C145.52 150.3 140.48 150.72 135.44 150.72C132.22 150.72 128.3 150.44 123.68 149.88C119.06 149.18 114.58 148.34 110.24 147.36C110.52 150.16 111.22 152.89 112.34 155.55C113.46 158.21 114.79 160.24 116.33 161.64C119.13 164.3 122 165.98 124.94 166.68C128.02 167.38 131.94 167.73 136.7 167.73C141.74 167.73 146.43 166.89 150.77 165.21C154.27 163.95 157.14 163.32 159.38 163.32C162.04 163.32 164.07 164.16 165.47 165.84C166.87 167.38 167.57 169.41 167.57 171.93C167.57 175.43 165.54 178.3 161.48 180.54C157.42 182.78 152.73 184.46 147.41 185.58C142.23 186.56 138.03 187.05 134.81 187.05C128.23 187.05 121.86 185.86 115.7 183.48C109.54 181.1 104.43 177.74 100.37 173.4C97.01 169.48 94.35 164.79 92.39 159.33C90.43 153.73 89.45 147.78 89.45 141.48ZM135.23 113.13C132.15 113.13 129.07 113.76 125.99 115.02C122.91 116.14 120.39 117.75 118.43 119.85C115.91 122.51 114.16 124.68 113.18 126.36C112.34 127.9 111.78 130.07 111.5 132.87C115 133.99 122.28 134.55 133.34 134.55C139.36 134.55 143.98 133.64 147.2 131.82C150.56 130 152.24 127.62 152.24 124.68C152.24 121.74 150.42 119.08 146.78 116.7C143.14 114.32 139.29 113.13 135.23 113.13ZM186.89 282.83C187.59 283.11 188.71 283.46 190.25 283.88C191.79 284.3 192.91 284.72 193.61 285.14C194.31 285.56 194.66 286.19 194.66 287.03C194.8 290.39 193.54 293.19 190.88 295.43C188.36 297.53 185.35 298.58 181.85 298.58C176.39 298.58 172.12 297.11 169.04 294.17C165.96 291.23 163.72 286.75 162.32 280.73C161.76 278.35 161.48 275.06 161.48 270.86C161.48 268.48 161.62 264.63 161.9 259.31C162.18 253.71 162.32 249.23 162.32 245.87C162.32 240.97 160.92 236.7 158.12 233.06C155.46 229.28 151.68 227.39 146.78 227.39C143.84 227.39 140.76 228.3 137.54 230.12C134.32 231.8 132.08 233.9 130.82 236.42C128.72 240.48 127.25 244.89 126.41 249.65C124.87 258.05 124.1 266.8 124.1 275.9C124.1 280.24 124.17 283.6 124.31 285.98C124.31 286.54 124.31 287.66 124.31 289.34C124.45 290.88 124.31 292.35 123.89 293.75C123.61 295.01 123.05 296.2 122.21 297.32C121.51 298.02 120.39 298.58 118.85 299C117.45 299.56 116.12 299.84 114.86 299.84C112.9 299.84 110.45 299 107.51 297.32C104.57 295.64 102.89 293.75 102.47 291.65L102.26 288.08C102.26 286.82 102.4 285.35 102.68 283.67C104.36 273.87 105.2 265.33 105.2 258.05C105.2 254.83 105.13 252.31 104.99 250.49L104.78 240.62C104.78 237.26 103.94 234.04 102.26 230.96C100.58 227.74 98.62 226.13 96.38 226.13C95.68 226.13 94.7 226.41 93.44 226.97C92.18 227.39 91.13 227.6 90.29 227.6C88.89 227.6 87.35 226.9 85.67 225.5C84.13 224.1 83.36 222.63 83.36 221.09C83.36 218.15 84.34 215.77 86.3 213.95C88.4 212.27 90.43 210.94 92.39 209.96C94.49 208.98 96.87 208.49 99.53 208.49C101.77 208.49 103.59 208.7 104.99 209.12C106.39 209.54 108.28 210.45 110.66 211.85C111.92 212.55 113.39 214.09 115.07 216.47C116.75 218.85 118.15 222.21 119.27 226.55C122.91 219.83 127.39 215.14 132.71 212.48C138.17 209.68 145.1 208.28 153.5 208.28C156.72 208.28 160.15 209.33 163.79 211.43C167.57 213.53 170.79 215.98 173.45 218.78C175.97 221.86 178.07 225.71 179.75 230.33C181.43 234.81 182.27 238.87 182.27 242.51C182.27 244.61 182.13 248.04 181.85 252.8C181.43 256.58 181.22 260.57 181.22 264.77C181.22 274.57 183.11 280.59 186.89 282.83ZM139.85 358.03C140.27 356.91 141.74 352.85 144.26 345.85C146.92 338.85 149.37 333.53 151.61 329.89C155.25 324.15 158.47 321.28 161.27 321.28C165.19 321.28 168.2 322.05 170.3 323.59C172.4 324.99 173.45 327.02 173.45 329.68C173.45 330.94 172.89 332.69 171.77 334.93C170.79 337.17 170.23 338.5 170.09 338.92C164.49 351.24 159.45 364.47 154.97 378.61L150.56 394.99C148.88 400.31 146.01 404.65 141.95 408.01C137.89 411.23 133.13 412.84 127.67 412.84C122.77 412.84 118.22 410.6 114.02 406.12C111.5 402.2 108.84 397.23 106.04 391.21C103.38 385.19 101.07 379.31 99.11 373.57L91.76 351.52C90.22 347.18 88.96 343.47 87.98 340.39C87.14 337.31 86.72 334.51 86.72 331.99C86.58 329.05 87.42 326.67 89.24 324.85C91.06 323.03 93.58 322.12 96.8 322.12C100.44 322.12 103.03 322.89 104.57 324.43C106.11 325.83 107.51 328.07 108.77 331.15C109.33 334.37 110.87 340.95 113.39 350.89L114.86 356.77C116.12 361.53 117.73 366.36 119.69 371.26C121.65 376.16 123.61 380.85 125.57 385.33C125.29 384.63 126.27 386.94 128.51 392.26C129.91 388.2 131.52 383.23 133.34 377.35L139.85 358.03Z" fill="white"/>
<defs>
<linearGradient id="paint0_linear_3121_2" x1="0" y1="0" x2="512" y2="512" gradientUnits="userSpaceOnUse">
<stop stop-color="#00FF2F"/>
<stop offset="0.639423" stop-color="#2C8976"/>
</linearGradient>
</defs>
</svg>