<svg width="40" height="40" viewBox="0 0 40 40" fill="none" xmlns="http://www.w3.org/2000/svg">
    <g clip-path="url(#clip0_108_2)">
        <path d="M4.224 23.79C4.224 24.1567 4.07733 24.5013 3.784 24.824C3.49067 25.132 3.168 25.286 2.816 25.286C2.40533 25.286 2.03133 25.176 1.694 24.956C1.35667 24.7213 1.188 24.428 1.188 24.076C1.188 23.5187 1.29067 23.108 1.496 22.844C1.716 22.58 2.03867 22.448 2.464 22.448C2.96267 22.448 3.38067 22.5727 3.718 22.822C4.05533 23.0567 4.224 23.3793 4.224 23.79ZM6.40406 20.336C6.40406 19.7787 6.50673 19.2213 6.71206 18.664C6.9174 18.092 7.18873 17.5713 7.52606 17.102C7.8634 16.6327 8.39873 16.2513 9.13206 15.958C9.8654 15.65 10.5181 15.496 11.0901 15.496C11.6767 15.496 12.2707 15.5767 12.8721 15.738C13.4881 15.8993 13.9134 16.1487 14.1481 16.486C14.6907 17.2487 14.9621 17.9967 14.9621 18.73C14.9621 19.126 14.8741 19.4633 14.6981 19.742C14.5367 20.0207 14.3021 20.3213 13.9941 20.644C13.7447 20.908 13.3487 21.084 12.8061 21.172C12.2781 21.26 11.7501 21.304 11.2221 21.304C10.8847 21.304 10.4741 21.2747 9.99006 21.216C9.50606 21.1427 9.03673 21.0547 8.58206 20.952C8.6114 21.2453 8.68473 21.5313 8.80206 21.81C8.9194 22.0887 9.05873 22.3013 9.22006 22.448C9.5134 22.7267 9.81406 22.9027 10.1221 22.976C10.4447 23.0493 10.8554 23.086 11.3541 23.086C11.8821 23.086 12.3734 22.998 12.8281 22.822C13.1947 22.69 13.4954 22.624 13.7301 22.624C14.0087 22.624 14.2214 22.712 14.3681 22.888C14.5147 23.0493 14.5881 23.262 14.5881 23.526C14.5881 23.8927 14.3754 24.1933 13.9501 24.428C13.5247 24.6627 13.0334 24.8387 12.4761 24.956C11.9334 25.0587 11.4934 25.11 11.1561 25.11C10.4667 25.11 9.7994 24.9853 9.15406 24.736C8.50873 24.4867 7.9734 24.1347 7.54806 23.68C7.19606 23.2693 6.9174 22.778 6.71206 22.206C6.50673 21.6193 6.40406 20.996 6.40406 20.336ZM11.2001 17.366C10.8774 17.366 10.5547 17.432 10.2321 17.564C9.9094 17.6813 9.6454 17.85 9.44006 18.07C9.17606 18.3487 8.99273 18.576 8.89006 18.752C8.80206 18.9133 8.7434 19.1407 8.71406 19.434C9.08073 19.5513 9.8434 19.61 11.0021 19.61C11.6327 19.61 12.1167 19.5147 12.4541 19.324C12.8061 19.1333 12.9821 18.884 12.9821 18.576C12.9821 18.268 12.7914 17.9893 12.4101 17.74C12.0287 17.4907 11.6254 17.366 11.2001 17.366ZM27.0964 23.306C27.1698 23.3353 27.2871 23.372 27.4484 23.416C27.6098 23.46 27.7271 23.504 27.8004 23.548C27.8738 23.592 27.9104 23.658 27.9104 23.746C27.9251 24.098 27.7931 24.3913 27.5144 24.626C27.2504 24.846 26.9351 24.956 26.5684 24.956C25.9964 24.956 25.5491 24.802 25.2264 24.494C24.9038 24.186 24.6691 23.7167 24.5224 23.086C24.4638 22.8367 24.4344 22.492 24.4344 22.052C24.4344 21.8027 24.4491 21.3993 24.4784 20.842C24.5078 20.2553 24.5224 19.786 24.5224 19.434C24.5224 18.9207 24.3758 18.4733 24.0824 18.092C23.8038 17.696 23.4078 17.498 22.8944 17.498C22.5864 17.498 22.2638 17.5933 21.9264 17.784C21.5891 17.96 21.3544 18.18 21.2224 18.444C21.0024 18.8693 20.8484 19.3313 20.7604 19.83C20.5991 20.71 20.5184 21.6267 20.5184 22.58C20.5184 23.0347 20.5258 23.3867 20.5404 23.636C20.5404 23.6947 20.5404 23.812 20.5404 23.988C20.5551 24.1493 20.5404 24.3033 20.4964 24.45C20.4671 24.582 20.4084 24.7067 20.3204 24.824C20.2471 24.8973 20.1298 24.956 19.9684 25C19.8218 25.0587 19.6824 25.088 19.5504 25.088C19.3451 25.088 19.0884 25 18.7804 24.824C18.4724 24.648 18.2964 24.45 18.2524 24.23L18.2304 23.856C18.2304 23.724 18.2451 23.57 18.2744 23.394C18.4504 22.3673 18.5384 21.4727 18.5384 20.71C18.5384 20.3727 18.5311 20.1087 18.5164 19.918L18.4944 18.884C18.4944 18.532 18.4064 18.1947 18.2304 17.872C18.0544 17.5347 17.8491 17.366 17.6144 17.366C17.5411 17.366 17.4384 17.3953 17.3064 17.454C17.1744 17.498 17.0644 17.52 16.9764 17.52C16.8298 17.52 16.6684 17.4467 16.4924 17.3C16.3311 17.1533 16.2504 16.9993 16.2504 16.838C16.2504 16.53 16.3531 16.2807 16.5584 16.09C16.7784 15.914 16.9911 15.7747 17.1964 15.672C17.4164 15.5693 17.6658 15.518 17.9444 15.518C18.1791 15.518 18.3698 15.54 18.5164 15.584C18.6631 15.628 18.8611 15.7233 19.1104 15.87C19.2424 15.9433 19.3964 16.1047 19.5724 16.354C19.7484 16.6033 19.8951 16.9553 20.0124 17.41C20.3938 16.706 20.8631 16.2147 21.4204 15.936C21.9924 15.6427 22.7184 15.496 23.5984 15.496C23.9358 15.496 24.2951 15.606 24.6764 15.826C25.0724 16.046 25.4098 16.3027 25.6884 16.596C25.9524 16.9187 26.1724 17.322 26.3484 17.806C26.5244 18.2753 26.6124 18.7007 26.6124 19.082C26.6124 19.302 26.5978 19.6613 26.5684 20.16C26.5244 20.556 26.5024 20.974 26.5024 21.414C26.5024 22.4407 26.7004 23.0713 27.0964 23.306ZM34.6079 19.346C34.6519 19.2287 34.8059 18.8033 35.0699 18.07C35.3486 17.3367 35.6052 16.7793 35.8399 16.398C36.2212 15.7967 36.5586 15.496 36.8519 15.496C37.2626 15.496 37.5779 15.5767 37.7979 15.738C38.0179 15.8847 38.1279 16.0973 38.1279 16.376C38.1279 16.508 38.0692 16.6913 37.9519 16.926C37.8492 17.1607 37.7906 17.3 37.7759 17.344C37.1892 18.6347 36.6612 20.0207 36.1919 21.502L35.7299 23.218C35.5539 23.7753 35.2532 24.23 34.8279 24.582C34.4026 24.9193 33.9039 25.088 33.3319 25.088C32.8186 25.088 32.3419 24.8533 31.9019 24.384C31.6379 23.9733 31.3592 23.4527 31.0659 22.822C30.7872 22.1913 30.5452 21.5753 30.3399 20.974L29.5699 18.664C29.4086 18.2093 29.2766 17.8207 29.1739 17.498C29.0859 17.1753 29.0419 16.882 29.0419 16.618C29.0272 16.31 29.1152 16.0607 29.3059 15.87C29.4966 15.6793 29.7606 15.584 30.0979 15.584C30.4792 15.584 30.7506 15.6647 30.9119 15.826C31.0732 15.9727 31.2199 16.2073 31.3519 16.53C31.4106 16.8673 31.5719 17.5567 31.8359 18.598L31.9899 19.214C32.1219 19.7127 32.2906 20.2187 32.4959 20.732C32.7012 21.2453 32.9066 21.7367 33.1119 22.206C33.0826 22.1327 33.1852 22.3747 33.4199 22.932C33.5666 22.5067 33.7352 21.986 33.9259 21.37L34.6079 19.346Z" fill="url(#paint0_linear_108_2)"/>
    </g>
    <defs>
        <linearGradient id="paint0_linear_108_2" x1="14.8137" y1="9.44355" x2="53.2004" y2="43.761" gradientUnits="userSpaceOnUse">
            <stop stop-color="#00FF88"/>
            <stop offset="0.697115" stop-color="#0A5C42"/>
            <stop offset="1" stop-color="#0B4612"/>
        </linearGradient>
        <clipPath id="clip0_108_2">
            <rect width="40" height="40" fill="white"/>
        </clipPath>
    </defs>
</svg>
