<svg width="16" height="16" viewBox="0 0 16 16" fill="none" xmlns="http://www.w3.org/2000/svg">
  <path d="M1.89844 10.1172C1.875 10.1172 1.83594 10.1211 1.78125 10.1289C1.73438 10.1367 1.67969 10.1445 1.61719 10.1523C1.5625 10.1602 1.50781 10.168 1.45312 10.1758C1.39844 10.1836 1.35547 10.1875 1.32422 10.1875C1.10547 10.1875 0.914062 10.0977 0.75 9.91797C0.585938 9.73047 0.503906 9.48438 0.503906 9.17969C0.503906 8.97656 0.570312 8.78125 0.703125 8.59375C0.835938 8.40625 1.04297 8.25 1.32422 8.125C1.41016 8.08594 1.47656 8.04297 1.52344 7.99609C1.57812 7.94141 1.60547 7.86719 1.60547 7.77344C1.60547 7.52344 1.59766 7.25781 1.58203 6.97656C1.57422 6.6875 1.55859 6.35156 1.53516 5.96875C1.52734 5.89062 1.5 5.81641 1.45312 5.74609C1.41406 5.67578 1.36719 5.59766 1.3125 5.51172C1.26562 5.41797 1.22266 5.31641 1.18359 5.20703C1.14453 5.09766 1.125 4.96094 1.125 4.79688C1.125 4.64844 1.14453 4.48047 1.18359 4.29297C1.23047 4.09766 1.32031 3.91797 1.45312 3.75391C1.59375 3.58203 1.78516 3.44141 2.02734 3.33203C2.27734 3.21484 2.60156 3.15625 3 3.15625C3.16406 3.15625 3.30078 3.17188 3.41016 3.20312C3.51953 3.23438 3.61328 3.27344 3.69141 3.32031C3.77734 3.35938 3.85156 3.39453 3.91406 3.42578C3.98438 3.45703 4.05469 3.47266 4.125 3.47266C4.25 3.47266 4.5 3.44922 4.875 3.40234C5.25 3.35547 5.69922 3.28906 6.22266 3.20312C6.75391 3.11719 7.33594 3.01953 7.96875 2.91016C8.60938 2.80078 9.25781 2.68359 9.91406 2.55859C10.5703 2.42578 11.2109 2.29297 11.8359 2.16016C12.4609 2.02734 13.0273 1.89844 13.5352 1.77344C13.6914 1.73438 13.8281 1.71484 13.9453 1.71484C14.1094 1.71484 14.2383 1.75391 14.332 1.83203C14.4336 1.90234 14.5078 1.99219 14.5547 2.10156C14.6016 2.21094 14.6289 2.33594 14.6367 2.47656C14.6523 2.60938 14.6602 2.73438 14.6602 2.85156C14.6602 3.05469 14.5898 3.24609 14.4492 3.42578C14.3164 3.59766 14.0938 3.73438 13.7812 3.83594C13.0078 4.0625 12.2266 4.26172 11.4375 4.43359C10.6562 4.59766 9.86719 4.75 9.07031 4.89062C8.27344 5.02344 7.47266 5.14453 6.66797 5.25391C5.86328 5.36328 5.0625 5.47266 4.26562 5.58203C4.15625 5.59766 4.07422 5.64062 4.01953 5.71094C3.96484 5.77344 3.9375 5.85938 3.9375 5.96875V6.44922C3.9375 6.58203 3.94141 6.71875 3.94922 6.85938C3.95703 7 3.97266 7.12891 3.99609 7.24609C4.02734 7.36328 4.06641 7.46094 4.11328 7.53906C4.16016 7.60938 4.22266 7.64453 4.30078 7.64453C4.48828 7.64453 4.77734 7.60547 5.16797 7.52734C5.56641 7.44922 6.01172 7.35547 6.50391 7.24609C7.00391 7.12891 7.52344 7.00391 8.0625 6.87109C8.60938 6.73047 9.125 6.60547 9.60938 6.49609C10.0938 6.37891 10.5195 6.28125 10.8867 6.20312C11.2539 6.125 11.5117 6.08594 11.6602 6.08594C11.8789 6.08594 12.043 6.16797 12.1523 6.33203C12.2695 6.48828 12.3477 6.6875 12.3867 6.92969C12.3867 6.96875 12.3906 7.00391 12.3984 7.03516C12.4062 7.06641 12.4102 7.10156 12.4102 7.14062C12.4102 7.36719 12.3398 7.57812 12.1992 7.77344C12.0664 7.96094 11.8242 8.10156 11.4727 8.19531C11.3789 8.22656 11.1914 8.27734 10.9102 8.34766C10.6289 8.41016 10.2969 8.48828 9.91406 8.58203C9.53125 8.66797 9.11719 8.76172 8.67188 8.86328C8.22656 8.96484 7.78906 9.06641 7.35938 9.16797C6.92969 9.26172 6.52734 9.35547 6.15234 9.44922C5.78516 9.53516 5.48438 9.60547 5.25 9.66016C5.03906 9.71484 4.91016 9.75781 4.86328 9.78906C4.82422 9.82031 4.80469 9.85938 4.80469 9.90625C4.82031 10.0781 4.90625 10.2383 5.0625 10.3867C5.22656 10.5352 5.42969 10.6719 5.67188 10.7969C5.92188 10.9219 6.19922 11.0352 6.50391 11.1367C6.81641 11.2383 7.13672 11.3242 7.46484 11.3945C7.80078 11.457 8.12891 11.5078 8.44922 11.5469C8.76953 11.5859 9.06641 11.6055 9.33984 11.6055C9.45703 11.6055 9.625 11.6055 9.84375 11.6055C10.0625 11.6055 10.3008 11.6016 10.5586 11.5938C10.8242 11.5781 11.0938 11.5586 11.3672 11.5352C11.6484 11.5117 11.8984 11.4805 12.1172 11.4414C12.3438 11.3945 12.5273 11.3398 12.668 11.2773C12.8164 11.207 12.8906 11.125 12.8906 11.0312C12.8906 10.9453 12.8594 10.8555 12.7969 10.7617C12.7422 10.668 12.7148 10.5664 12.7148 10.457C12.7148 10.3008 12.7578 10.1484 12.8438 10C12.9297 9.84375 13.0391 9.70703 13.1719 9.58984C13.3125 9.46484 13.4688 9.36719 13.6406 9.29688C13.8203 9.21875 14 9.17969 14.1797 9.17969C14.4062 9.17969 14.6133 9.22656 14.8008 9.32031C14.9883 9.40625 15.1484 9.52344 15.2812 9.67188C15.4219 9.8125 15.5273 9.97656 15.5977 10.1641C15.6758 10.3516 15.7148 10.543 15.7148 10.7383C15.7148 11.2539 15.5234 11.6992 15.1406 12.0742C14.7656 12.4492 14.2734 12.7578 13.6641 13C13.0547 13.25 12.3672 13.4336 11.6016 13.5508C10.8359 13.6758 10.0664 13.7383 9.29297 13.7383C8.38672 13.7383 7.55859 13.6758 6.80859 13.5508C6.05859 13.4336 5.38672 13.2422 4.79297 12.9766C4.19922 12.7109 3.6875 12.3672 3.25781 11.9453C2.82812 11.5156 2.47656 10.9961 2.20312 10.3867C2.10938 10.207 2.00781 10.1172 1.89844 10.1172Z" fill="url(#paint0_linear_115_2)"/>
  <defs>
    <linearGradient id="paint0_linear_115_2" x1="14" y1="5" x2="3.5" y2="12.5" gradientUnits="userSpaceOnUse">
      <stop stop-color="#0A5C42"/>
      <stop offset="1" stop-color="#5DFF98"/>
    </linearGradient>
  </defs>
</svg>
