<?xml version="1.0" encoding="UTF-8" standalone="no"?><!DOCTYPE svg PUBLIC "-//W3C//DTD SVG 1.1//EN" "http://www.w3.org/Graphics/SVG/1.1/DTD/svg11.dtd"><svg width="100%" height="100%" viewBox="0 0 167 167" version="1.1" xmlns="http://www.w3.org/2000/svg" xmlns:xlink="http://www.w3.org/1999/xlink" xml:space="preserve" xmlns:serif="http://www.serif.com/" style="fill-rule:evenodd;clip-rule:evenodd;stroke-linejoin:round;stroke-miterlimit:2;"><g><path d="M41.742,16.455c14.787,-2.52 29.948,1.808 41.171,11.76l0.309,0.274l0.278,-0.249c10.704,-9.39 24.95,-13.727 39.068,-11.885l2.029,0.295c23.653,4.084 41.097,24.805 41.097,48.802c-0,12.546 -4.766,24.639 -13.328,33.807l-1.489,1.527l-0.395,0.337l-61.493,60.907c-2.919,2.89 -7.581,3.182 -10.837,0.678l-0.778,-0.678l-61.847,-61.261c-9.576,-9.319 -14.986,-22.13 -14.986,-35.496c-0,-24.038 17.502,-44.781 41.201,-48.818Z" style="fill:#f05138;fill-rule:nonzero;stroke:#f05138;stroke-width:0.83px;"/><g><path d="M46.701,107.472c2.787,-0.53 5.574,-1.061 8.315,-0.996c2.74,0.066 4.413,0.648 7.107,1.309l0.906,0.948c0.546,0.281 1.092,0.563 1.662,0.673c0.571,0.11 1.165,0.049 1.548,-0.041c0.382,-0.09 0.553,-0.208 0.817,-0.167c0.263,0.04 0.62,0.241 0.917,0.309c0.296,0.067 0.534,0.003 0.771,-0.062l1.082,0.444l-0.525,-0.8c-0.098,-0.346 -0.196,-0.692 -0.502,-0.991c-0.307,-0.299 -0.823,-0.55 -1.338,-0.801c1.065,-1.555 2.129,-3.11 4.222,-4.733c2.093,-1.623 5.215,-3.313 8.337,-5.003c-3.039,1 -6.078,2.001 -8.342,3.118c-0.427,0.211 -0.826,0.426 -1.193,0.646c-2.311,1.385 -3.323,2.968 -4.335,4.55c-3.822,-0.934 -7.644,-1.867 -10.885,-1.601c-2.204,0.181 -4.14,0.917 -5.989,1.83c-0.871,0.429 -1.723,0.899 -2.575,1.368Z" style="fill:#fff;fill-rule:nonzero;"/><path d="M50.086,73.67c5.756,0.373 11.511,0.747 16.169,2.652c4.657,1.906 8.216,5.342 11.775,8.778l-0.55,1.274c0.319,0.918 0.638,1.834 1.361,2.476c0.723,0.641 1.851,1.006 2.584,1.174c0.733,0.17 1.071,0.141 1.527,0.385c0.457,0.243 1.031,0.757 1.569,1.074c0.538,0.316 1.039,0.434 1.54,0.55l0.985,1.431l-0.108,-1.979c0.22,-0.545 0.441,-1.089 0.242,-1.729c-0.199,-0.64 -0.816,-1.377 -1.433,-2.113c4.451,-2.285 8.901,-4.572 13.84,-4.572c0.122,-0 0.244,0.001 0.366,0.004c5.085,0.117 10.696,2.693 16.306,5.27c-4.942,-4.153 -9.884,-8.306 -15.253,-9.095c-0.671,-0.099 -1.352,-0.145 -2.036,-0.145c-4.784,-0 -9.853,2.251 -14.924,4.501c-3.709,-4.408 -7.419,-8.816 -13.078,-10.472c-2.089,-0.611 -4.443,-0.848 -6.964,-0.848c-4.312,0 -9.115,0.692 -13.918,1.384Z" style="fill:#fff;fill-rule:nonzero;"/><path d="M130.563,55.386c-1.059,0.189 -2.119,0.378 -3.141,0.611c-2.063,0.47 -3.973,1.116 -5.427,2.296c-2.174,1.763 -3.325,4.718 -4.476,7.673l1.131,-0.97l-0.037,0.572l-0.64,0.847c0.027,0.446 0.054,0.891 -0.056,1.449c-0.111,0.557 -0.36,1.226 -0.757,1.665c-0.396,0.44 -0.94,0.649 -1.287,0.946c-0.348,0.297 -0.498,0.683 -0.759,0.989c-0.262,0.307 -0.633,0.534 -1.006,0.761l-0.39,1.062l-0.39,-1.404c-0.095,-0.396 -0.188,-0.792 -0.19,-1.168c-0.001,-0.375 0.091,-0.731 0.185,-1.088c-1.864,-0.881 -3.727,-1.762 -5.51,-2.357c-1.822,-0.607 -3.56,-0.916 -5.13,-0.621c-0.077,0.015 -0.153,0.03 -0.229,0.048c-2.998,0.682 -5.385,3.562 -7.771,6.441c2.087,-3.828 4.174,-7.656 7.344,-9.021c0.401,-0.172 0.82,-0.305 1.254,-0.403c2.994,-0.682 6.71,0.278 10.428,1.238c0.908,-1.872 1.816,-3.744 2.922,-5.313c0.892,-1.265 1.914,-2.334 3.168,-3.046c0.754,-0.427 1.593,-0.727 2.492,-0.931c2.452,-0.559 5.362,-0.418 8.272,-0.276Z" style="fill:#fff;fill-rule:nonzero;"/></g></g></svg>